<svg xmlns="http://www.w3.org/2000/svg" viewBox="0 0 375.7 289.31"><defs><style>.cls-1{fill:#29b7c9;stroke:#2f3440;stroke-miterlimit:10;stroke-width:0.5px;}</style></defs><g id="katman_2" data-name="katman 2"><g id="katman_1-2" data-name="katman 1"><path class="cls-1" d="M365.29,236.78c-6.05-3.78-13.62-6.05-20.67-7.06-11.85-1.51-24.2-1.77-36.3-2.27-26.47-.76-60.25.25-84.45-.5-27.73-1.26-43.1-4.29-63.27-8.32s-36.8-15.38-47.64-34C91.85,152.92,68.34,79.23,54.47,40.91,49.18,26,42.88,12.18,28.26,3.86,17.42-2.44,9.35-.68,3.81,10.66A35.87,35.87,0,0,0,.28,26.8C.78,37.38,1.54,48,4.06,58.31c2.67,10.67,5.47,21.31,8.33,32,5,18.49,10.15,36.95,15.11,55.52,1.51,5.54,11.85,33.78,12.86,36v.26c8.82,21.68,18.65,43.86,32.26,63,14.12,20.41,31.26,37.81,55.46,41.84,21.15,3.56,43.27,1.69,65.12,1.12,7.58-.2,51.52-2,65.9-2.51,27.81-.91,57.23-1.16,82.49-4.16,7.82-1,15.63-4.28,22.44-8.31,14.62-8.83,15.37-27,1.26-36.3"/><path class="cls-1" d="M200.17,30.58a16.66,16.66,0,0,0,6.31,1.76c3.53.25,7.31.25,10.84.25,8.06,0,18.15-1,25.2-1a133.76,133.76,0,0,1,19.16,1.51c6.05,1,11.35,4,14.62,9.58,1.77,2.77,4,5.54,5.3,8.57,5,11.09,9.58,22.43,14.36,33.78,1.77,4.28,4,8.57,8.32,10.84,3.28,1.76,5.8,1,7.31-2.53a8,8,0,0,0,.76-4.78,60.22,60.22,0,0,0-1.51-9.33c-2.52-8.57-5.55-17.14-8.32-26C302,51.5,301.26,50,301,48.73c0,0-.51-1-1.52-3.28V45a23.18,23.18,0,0,1-1-2.27h0c-3-6.3-6.3-12.86-10.58-18.4-4.54-6.05-9.83-10.84-17.14-11.85-8.57-1-17.65,1-26.22,1h-.76c-11.09,1.76-25.46,1.76-36.8,3.78A16.53,16.53,0,0,0,200.43,20c-4.79,2.52-4.79,8.07-.26,10.59"/></g></g></svg>