<svg xmlns="http://www.w3.org/2000/svg" viewBox="0 0 619.12 115.4"><defs><style>.cls-1{fill:#fff;}.cls-2,.cls-3{fill:#29b7c9;}.cls-3{stroke:#2f3440;stroke-miterlimit:10;stroke-width:0.5px;}</style></defs><g id="katman_2" data-name="katman 2"><g id="katman_1-2" data-name="katman 1"><path class="cls-1" d="M174.18,9.71h9a.83.83,0,0,1,.83.82V93.59H201a.82.82,0,0,1,.82.83v9.1a.82.82,0,0,1-.82.83H174.18a.82.82,0,0,1-.82-.83v-93A.82.82,0,0,1,174.18,9.71Z"/><path class="cls-1" d="M215.16,33.91h10.62v69.61a.83.83,0,0,1-.82.83h-9a.83.83,0,0,1-.82-.83Zm1.36-19.49h7.9a.82.82,0,0,1,.82.82v8.84a.82.82,0,0,1-.82.82h-7.9a.82.82,0,0,1-.82-.82V15.24A.82.82,0,0,1,216.52,14.42Z"/><path class="cls-1" d="M277.94,10.53v93a.83.83,0,0,1-.83.83h-6.68a.83.83,0,0,1-.83-.83v-6c-2,5.24-6.85,8.2-13.84,8.2-9,0-15.19-6.45-15.19-19.22V52.33c0-13,4.43-20,15.19-20,5.91,0,9.54,2.83,11.56,6.46V10.53a.82.82,0,0,1,.82-.82h9A.83.83,0,0,1,277.94,10.53ZM267.32,51.38c0-7.12-4.17-9.81-8.34-9.81-4.57,0-7.79,3.9-7.79,10.62V86.47c0,6.45,3.22,9.81,7.79,9.81,4.17,0,8.34-2.69,8.34-9.81Z"/><path class="cls-1" d="M303.2,73.7V86.2c0,7.12,3.36,10,7.4,10h.13c4,0,7.13-2.83,7.13-10V84.45l9.78-.12a.82.82,0,0,1,.84.82v2c0,12.37-7.26,18.55-17.48,18.55h-.67c-10.08,0-17.75-6-17.75-18.42v-37c0-12.24,7.53-18,17.75-18H311c9.95,0,17.48,5.78,17.48,18V72.87a.83.83,0,0,1-.83.83Zm0-22.18V65.77h14.66V51.52c0-7.13-3.9-9.82-7.13-9.82h-.13C306.56,41.7,303.2,44.39,303.2,51.52Z"/><path class="cls-1" d="M367.32,33.91v9.26a.82.82,0,0,1-.82.82h-3.61c-4.17,0-8.61,2.82-8.61,9.41v50.12a.83.83,0,0,1-.82.83h-9a.83.83,0,0,1-.83-.83V34.73a.83.83,0,0,1,.83-.82h6.3a.83.83,0,0,1,.83.8l.24,7.8c2-5.38,7.26-8.6,14.39-8.6Z"/><path class="cls-2" d="M413.7,47.22v56.3a.83.83,0,0,1-.83.83h-7a.83.83,0,0,1-.82-.78l-.22-3.79c-2.29,3.76-6.86,5.91-13,5.91-10.09,0-15.46-4-15.46-17.2V80.42c0-18.55,26.61-14.25,26.61-26.48V48.16c0-6.19-3.09-7.4-6.58-7.4s-6.72,1.21-6.72,7.4v8.31a.83.83,0,0,1-.83.83h-9.24a.83.83,0,0,1-.82-.83V48c0-11.83,9.14-15.73,16.93-15.73C405.1,32.29,413.7,35.39,413.7,47.22Zm-10.49,20c-6.32,4.3-16,5.78-16,13.17v7.93c0,6.19,3.36,8.2,8.06,8.2,4,0,7.93-2,7.93-8.74Z"/><path class="cls-2" d="M466.39,48.29v55.23a.83.83,0,0,1-.83.83h-9a.83.83,0,0,1-.82-.83V51.38c0-6.58-2.69-9.81-7.26-9.81-4.3,0-9,2.82-9,10v52a.83.83,0,0,1-.82.83h-9a.83.83,0,0,1-.83-.83v-93a.83.83,0,0,1,.83-.82h9a.82.82,0,0,1,.82.82V39.29c2.69-4.17,7.8-6.73,13.31-6.73C461.82,32.56,466.39,38.48,466.39,48.29Z"/><path class="cls-2" d="M490.72,73.7V86.2c0,7.12,3.36,10,7.39,10h.13c4,0,7.13-2.83,7.13-10V84.45l9.78-.12a.82.82,0,0,1,.84.82v2c0,12.37-7.26,18.55-17.48,18.55h-.67c-10.08,0-17.74-6-17.74-18.42v-37c0-12.24,7.52-18,17.74-18h.67c9.95,0,17.48,5.78,17.48,18V72.87a.83.83,0,0,1-.83.83Zm0-22.18V65.77h14.65V51.52c0-7.13-3.9-9.82-7.13-9.82h-.13C494.08,41.7,490.72,44.39,490.72,51.52Z"/><path class="cls-2" d="M568.68,47.35v56.17a.83.83,0,0,1-.82.83h-9a.83.83,0,0,1-.82-.83V50.58c0-6.59-2.15-9-7.12-9-4,0-9.15,2.82-9.15,10v52a.82.82,0,0,1-.82.83h-9a.83.83,0,0,1-.83-.83V34.73a.83.83,0,0,1,.83-.82h7.7a.83.83,0,0,1,.83.88L540.18,40c2.29-4.57,7.26-7.4,13-7.4C563.3,32.56,568.68,37.67,568.68,47.35Z"/><path class="cls-2" d="M584.69,9.71h9a.83.83,0,0,1,.83.82V59.72h.26L608.1,34.35a.82.82,0,0,1,.73-.44h8.89a.83.83,0,0,1,.73,1.21l-14.69,28,15.3,40.15a.82.82,0,0,1-.77,1.12h-9.13a.84.84,0,0,1-.77-.52L596.5,74.1l-2.42,4,.13,25.38a.81.81,0,0,1-.82.83h-8.7a.82.82,0,0,1-.82-.83v-93A.82.82,0,0,1,584.69,9.71Z"/><path class="cls-3" d="M145.48,94.35a22,22,0,0,0-8.22-2.81c-4.72-.6-9.63-.7-14.45-.9-10.53-.3-24,.1-33.59-.2A143.42,143.42,0,0,1,64,87.13a27.52,27.52,0,0,1-19-13.54C36.69,61,27.34,31.67,21.82,16.43,19.72,10.51,17.21,5,11.39,1.68,7.08-.82,3.87-.12,1.66,4.39a14.33,14.33,0,0,0-1.4,6.42A65.31,65.31,0,0,0,1.77,23.35q1.59,6.36,3.31,12.71c2,7.36,4,14.7,6,22.09.6,2.2,4.72,13.44,5.12,14.34v.1C19.72,81.21,23.63,90,29,97.66c5.62,8.13,12.44,15,22.07,16.65,8.41,1.41,17.21.67,25.9.44,3-.08,20.5-.81,26.22-1,11.07-.37,22.77-.47,32.82-1.66a24,24,0,0,0,8.93-3.31c5.81-3.51,6.12-10.73.5-14.44"/><path class="cls-3" d="M79.79,12.32a6.61,6.61,0,0,0,2.51.7c1.4.1,2.91.1,4.31.1,3.21,0,7.22-.4,10-.4a53.58,53.58,0,0,1,7.62.6,8,8,0,0,1,5.82,3.81,24,24,0,0,1,2.1,3.41c2,4.41,3.81,8.93,5.72,13.44a7.88,7.88,0,0,0,3.31,4.31,1.84,1.84,0,0,0,2.91-1,3.23,3.23,0,0,0,.3-1.91,23.88,23.88,0,0,0-.6-3.71c-1-3.41-2.21-6.82-3.31-10.33-.2-.7-.5-1.3-.6-1.8,0,0-.2-.4-.61-1.31V18a7.93,7.93,0,0,1-.4-.9h0a40,40,0,0,0-4.21-7.32c-1.8-2.41-3.91-4.31-6.82-4.72-3.41-.4-7,.41-10.43.41h-.3C92.73,6.2,87,6.2,82.5,7a6.64,6.64,0,0,0-2.61,1.1,2.29,2.29,0,0,0-.1,4.22"/></g></g></svg>