<svg xmlns="http://www.w3.org/2000/svg" viewBox="0 0 618.87 114.9"><defs><style>.cls-1{fill:#fff;}</style></defs><g id="katman_2" data-name="katman 2"><g id="katman_1-2" data-name="katman 1"><path class="cls-1" d="M173.93,9.46h9a.83.83,0,0,1,.83.82V93.34h17.05a.82.82,0,0,1,.82.83v9.1a.82.82,0,0,1-.82.83H173.93a.82.82,0,0,1-.82-.83v-93A.82.82,0,0,1,173.93,9.46Z"/><path class="cls-1" d="M214.91,33.66h10.62v69.61a.83.83,0,0,1-.82.83h-9a.83.83,0,0,1-.82-.83Zm1.36-19.49h7.9A.82.82,0,0,1,225,15v8.84a.82.82,0,0,1-.82.82h-7.9a.82.82,0,0,1-.82-.82V15A.82.82,0,0,1,216.27,14.17Z"/><path class="cls-1" d="M277.69,10.28v93a.83.83,0,0,1-.83.83h-6.68a.83.83,0,0,1-.83-.83v-6c-2,5.24-6.85,8.2-13.84,8.2-9,0-15.19-6.45-15.19-19.22V52.08c0-13,4.43-20,15.19-20,5.91,0,9.54,2.83,11.56,6.46V10.28a.82.82,0,0,1,.82-.82h9A.83.83,0,0,1,277.69,10.28ZM267.07,51.13c0-7.12-4.17-9.81-8.34-9.81-4.57,0-7.79,3.9-7.79,10.62V86.22c0,6.45,3.22,9.81,7.79,9.81,4.17,0,8.34-2.69,8.34-9.81Z"/><path class="cls-1" d="M303,73.45V86c0,7.12,3.36,10,7.4,10h.13c4,0,7.13-2.83,7.13-10V84.2l9.78-.12a.82.82,0,0,1,.84.82v2c0,12.37-7.26,18.55-17.48,18.55h-.67c-10.08,0-17.75-6-17.75-18.42v-37c0-12.24,7.53-18,17.75-18h.67c9.95,0,17.48,5.78,17.48,18V72.62a.83.83,0,0,1-.83.83Zm0-22.18V65.52h14.66V51.27c0-7.13-3.9-9.82-7.13-9.82h-.13C306.31,41.45,303,44.14,303,51.27Z"/><path class="cls-1" d="M367.07,33.66v9.26a.82.82,0,0,1-.82.82h-3.61c-4.17,0-8.61,2.82-8.61,9.41v50.12a.83.83,0,0,1-.82.83h-9a.83.83,0,0,1-.83-.83V34.48a.83.83,0,0,1,.83-.82h6.3a.83.83,0,0,1,.83.8l.24,7.8c2-5.38,7.26-8.6,14.39-8.6Z"/><path class="cls-1" d="M413.45,47v56.3a.83.83,0,0,1-.83.83h-7a.83.83,0,0,1-.82-.78l-.22-3.79c-2.29,3.76-6.86,5.91-13,5.91-10.09,0-15.46-4-15.46-17.2V80.17c0-18.55,26.61-14.25,26.61-26.48V47.91c0-6.19-3.09-7.4-6.58-7.4s-6.72,1.21-6.72,7.4v8.31a.83.83,0,0,1-.83.83h-9.24a.83.83,0,0,1-.82-.83V47.77c0-11.83,9.14-15.73,16.93-15.73C404.85,32,413.45,35.14,413.45,47ZM403,67c-6.32,4.3-16,5.78-16,13.17V88.1c0,6.19,3.36,8.2,8.06,8.2,4,0,7.93-2,7.93-8.74Z"/><path class="cls-1" d="M466.14,48v55.23a.83.83,0,0,1-.83.83h-9a.83.83,0,0,1-.82-.83V51.13c0-6.58-2.69-9.81-7.26-9.81-4.3,0-9,2.82-9,10v52a.83.83,0,0,1-.82.83h-9a.83.83,0,0,1-.83-.83v-93a.83.83,0,0,1,.83-.82h9a.82.82,0,0,1,.82.82V39c2.69-4.17,7.8-6.73,13.31-6.73C461.57,32.31,466.14,38.23,466.14,48Z"/><path class="cls-1" d="M490.47,73.45V86c0,7.12,3.36,10,7.39,10H498c4,0,7.13-2.83,7.13-10V84.2l9.78-.12a.82.82,0,0,1,.84.82v2c0,12.37-7.26,18.55-17.48,18.55h-.67c-10.08,0-17.74-6-17.74-18.42v-37c0-12.24,7.52-18,17.74-18h.67c9.95,0,17.48,5.78,17.48,18V72.62a.83.83,0,0,1-.83.83Zm0-22.18V65.52h14.65V51.27c0-7.13-3.9-9.82-7.13-9.82h-.13C493.83,41.45,490.47,44.14,490.47,51.27Z"/><path class="cls-1" d="M568.43,47.1v56.17a.83.83,0,0,1-.82.83h-9a.83.83,0,0,1-.82-.83V50.33c0-6.59-2.15-9-7.12-9-4,0-9.15,2.82-9.15,10v52a.82.82,0,0,1-.82.83h-9a.83.83,0,0,1-.83-.83V34.48a.83.83,0,0,1,.83-.82h7.7a.83.83,0,0,1,.83.88l-.35,5.17c2.29-4.57,7.26-7.4,13-7.4C563.05,32.31,568.43,37.42,568.43,47.1Z"/><path class="cls-1" d="M584.44,9.46h9a.83.83,0,0,1,.83.82V59.47h.26L607.85,34.1a.82.82,0,0,1,.73-.44h8.89a.83.83,0,0,1,.73,1.21l-14.69,28L618.81,103a.82.82,0,0,1-.77,1.12h-9.13a.84.84,0,0,1-.77-.52L596.25,73.85l-2.42,4,.13,25.38a.81.81,0,0,1-.82.83h-8.7a.82.82,0,0,1-.82-.83v-93A.82.82,0,0,1,584.44,9.46Z"/><path class="cls-1" d="M145.23,94.1A22,22,0,0,0,137,91.29c-4.72-.6-9.63-.7-14.45-.9-10.53-.3-24,.1-33.59-.2a143.42,143.42,0,0,1-25.18-3.31A27.52,27.52,0,0,1,44.84,73.34c-8.4-12.6-17.75-41.92-23.27-57.16C19.47,10.26,17,4.74,11.14,1.43,6.83-1.07,3.62-.37,1.41,4.14A14.33,14.33,0,0,0,0,10.56,65.31,65.31,0,0,0,1.52,23.1q1.59,6.36,3.31,12.71c2,7.36,4,14.7,6,22.09.6,2.2,4.72,13.44,5.12,14.34v.1C19.47,81,23.38,89.79,28.79,97.41c5.62,8.13,12.44,15,22.07,16.65,8.41,1.41,17.21.67,25.9.44,3-.08,20.5-.81,26.22-1,11.07-.37,22.77-.47,32.82-1.66a24,24,0,0,0,8.93-3.31c5.81-3.51,6.12-10.73.5-14.44"/><path class="cls-1" d="M79.54,12.07a6.61,6.61,0,0,0,2.51.7c1.4.1,2.91.1,4.31.1,3.21,0,7.22-.4,10-.4a53.58,53.58,0,0,1,7.62.6,8,8,0,0,1,5.82,3.81,24,24,0,0,1,2.1,3.41c2,4.41,3.81,8.93,5.72,13.44A7.88,7.88,0,0,0,121,38a1.84,1.84,0,0,0,2.91-1,3.23,3.23,0,0,0,.3-1.91,23.88,23.88,0,0,0-.6-3.71c-1-3.41-2.21-6.82-3.31-10.33-.2-.7-.5-1.3-.6-1.8,0,0-.2-.4-.61-1.31v-.2a7.93,7.93,0,0,1-.4-.9h0a40,40,0,0,0-4.21-7.32c-1.8-2.41-3.91-4.31-6.82-4.72-3.41-.4-7,.41-10.43.41h-.3c-4.41.7-10.13.7-14.64,1.5a6.64,6.64,0,0,0-2.61,1.1,2.29,2.29,0,0,0-.1,4.22"/></g></g></svg>