<svg xmlns="http://www.w3.org/2000/svg" viewBox="0 0 64 49.26"><defs><style>.cls-1{fill:#3fb0c2;}</style></defs><g id="katman_2" data-name="katman 2"><g id="katman_1-2" data-name="katman 1"><path class="cls-1" d="M62.27,40.35a9.15,9.15,0,0,0-3.53-1.21c-2-.26-4.13-.3-6.19-.38-4.52-.13-10.28,0-14.41-.09a61.92,61.92,0,0,1-10.79-1.42,11.78,11.78,0,0,1-8.12-5.8,40.76,40.76,0,0,1-2.76-5C14,20,11.61,13.47,9.25,6.94,8.35,4.4,7.27,2,4.78.62,2.93-.46,1.55-.16.61,1.78A6.1,6.1,0,0,0,0,4.53,28.55,28.55,0,0,0,.65,9.9c1.25,5,2.67,9.94,4,14.92.26.95.56,1.9.77,2.58a17.56,17.56,0,0,1,.82,2s0,.09,0,.17,0,.09,0,.13c.12.35.34.91.51,1.29V31a53,53,0,0,0,5.51,10.75c2.4,3.48,5.33,6.45,9.46,7.13,4.85.82,10,0,15,.22a1.47,1.47,0,0,0,.39,0c6.36-.65,14.53-.35,21.07-1.12a10.23,10.23,0,0,0,3.82-1.42,3.53,3.53,0,0,0,.22-6.19"/><path class="cls-1" d="M34.1,5.17a2.66,2.66,0,0,0,1.08.3c.6,0,1.24,0,1.85,0,1.37,0,3.09-.17,4.3-.17a22.68,22.68,0,0,1,3.26.25,3.45,3.45,0,0,1,2.5,1.64A9.55,9.55,0,0,1,48,8.7c.86,1.89,1.64,3.83,2.45,5.76a3.41,3.41,0,0,0,1.42,1.85.79.79,0,0,0,1.25-.43,1.4,1.4,0,0,0,.13-.82A11.2,11.2,0,0,0,53,13.47C52.55,12,52,10.55,51.56,9c-.09-.3-.21-.56-.26-.77L51,7.71V7.62c0-.08-.12-.25-.17-.38h0a16.81,16.81,0,0,0-1.8-3.14,4.51,4.51,0,0,0-2.93-2,39.3,39.3,0,0,0-4.47.17h-.13c-1.89.3-4.34.3-6.28.64a2.87,2.87,0,0,0-1.11.48,1,1,0,0,0,0,1.8"/></g></g></svg>